<?xml version="1.0" encoding="utf-8"?>
<!-- Generator: Adobe Illustrator 27.5.0, SVG Export Plug-In . SVG Version: 6.00 Build 0)  -->
<svg version="1.1" id="Vrstva_1" xmlns="http://www.w3.org/2000/svg" xmlns:xlink="http://www.w3.org/1999/xlink" x="0px" y="0px"
	 viewBox="0 0 595.3 841.9" style="enable-background:new 0 0 595.3 841.9;" xml:space="preserve">
<style type="text/css">
	.st0{fill:none;stroke:#1D1D1B;stroke-width:5;stroke-miterlimit:10;}
	.st1{fill:none;stroke:#1D1D1B;stroke-width:5;stroke-linecap:round;stroke-linejoin:round;stroke-miterlimit:10;}
	.st2{fill:#E21F26;stroke:#1D1D1B;stroke-width:5;stroke-miterlimit:10;}
	.st3{fill:url(#SVGID_1_);stroke:#1D1D1B;stroke-width:5;stroke-linecap:round;stroke-linejoin:round;stroke-miterlimit:10;}
	
		.st4{fill:url(#SVGID_00000145753081531504307680000009990169201188581538_);stroke:#1D1D1B;stroke-width:5;stroke-linecap:round;stroke-linejoin:round;stroke-miterlimit:10;}
	.st5{fill:none;}
	.st6{fill:#FFFFFF;}
	.st7{font-family:'ArialMT';}
	.st8{font-size:89px;}
	.st9{letter-spacing:7;}
	.st10{fill:none;stroke:#1D1D1B;stroke-width:2;stroke-miterlimit:10;}
	.st11{fill:#EBC2A1;stroke:#1D1D1B;stroke-width:3;stroke-linecap:round;stroke-linejoin:round;stroke-miterlimit:10;}
	.st12{fill:#B3B3B2;stroke:#1D1D1B;stroke-width:3;stroke-linecap:round;stroke-linejoin:round;stroke-miterlimit:10;}
	.st13{fill:none;stroke:#1D1D1B;stroke-width:3;stroke-linecap:round;stroke-linejoin:round;stroke-miterlimit:10;}
	.st14{fill:#E21F26;stroke:#1D1D1B;stroke-width:3;stroke-linecap:round;stroke-linejoin:round;stroke-miterlimit:10;}
	.st15{fill:#E21F26;}
	.st16{fill:#1D1D1B;}
</style>
<g id="Vrstva_3">
</g>
<g id="Vrstva_4">
	<g>
		<path class="st0" d="M353.3,54.3"/>
		<path class="st1" d="M309.7,142.3l3.6-0.3l5.2,4l0.6,4.7l-4.2,4.1l-7.5,6.9c0,0-8.6,8-9.2,8.1c-0.5,0.1-10.3,8.9-10.3,8.9
			l-3.2,1.4l-2.6-6.1l-4.3-5.6L309.7,142.3z"/>
		<g>
			<path class="st2" d="M362.9,148.9"/>
			<path class="st2" d="M365.5,29.7l8.6-18.8c23.7,9.5,41.3,19.3,41.3,19.3l6.1,11l-4.2,8.7"/>
			<path class="st2" d="M376.6,127.1"/>
			<path class="st2" d="M393.4,101.2"/>
		</g>
		<g>
			
				<linearGradient id="SVGID_1_" gradientUnits="userSpaceOnUse" x1="185.15" y1="494.31" x2="211" y2="494.31" gradientTransform="matrix(1 0 0 -1 0 844)">
				<stop  offset="0" style="stop-color:#C2C4C6"/>
				<stop  offset="1" style="stop-color:#52504E"/>
			</linearGradient>
			<polygon class="st3" points="185.1,349.9 210,349.5 211,349.5 			"/>
			
				<linearGradient id="SVGID_00000066484934890821748040000001867304038463472313_" gradientUnits="userSpaceOnUse" x1="139.05" y1="611.13" x2="356.33" y2="611.13" gradientTransform="matrix(1 0 0 -1 0 844)">
				<stop  offset="0" style="stop-color:#C2C4C6"/>
				<stop  offset="1" style="stop-color:#52504E"/>
			</linearGradient>
			
				<path style="fill:url(#SVGID_00000066484934890821748040000001867304038463472313_);stroke:#1D1D1B;stroke-width:5;stroke-linecap:round;stroke-linejoin:round;stroke-miterlimit:10;" d="
				M303.9,121.5l-2.5-4.1l-1.3-1.2l-1.4,1.3L294,122l5.6,4.5l2.4,5.8l-1.4,3.8L292,144l-22,19.2l-2,1.4l-3.8,0.2l-5.8,4l-3.8,2.3
				l-14.2,11.4l-15.6,13.3l-53.8,46.6l-6.3,6.1l-4.1,5.4l-5.5,9.4l-3.3,9.1l-3.5,11.4l-1.6,11l-1.8,10.3l-1.7,14.3l-3.8,20.9
				l-0.2,3.8l0,1l0,1l-0.2,3.4l70.9,0.1l0.5-3.5l0.3-2l7.4-57l2.8-23.4l3.3-13.1l4-7.4l3.6-4.8l1.9-1.9l8.6-8.1l5.2-3.5
				c0,0,0,0,0.1,0l0.2-0.1c0,0,0.1,0,0.1-0.1l0.3-0.2c0,0,0,0,0,0l0.3-0.2l0.5-0.3h0c0.2-0.1,0.4-0.2,0.6-0.4l30.8-25.1l23.2-21.1
				l24.4-20.8l2.8-1.2l4.1,1.2l4.6,2.5l6.5,8.5l2.9-3.9l7.3-4.1L303.9,121.5z M194.3,239.4c2.2-2.9,6.3-3.5,9.2-1.2
				c2.9,2.2,3.4,6.4,1.2,9.3c-2.2,2.9-6.3,3.5-9.2,1.2C192.7,246.5,192.1,242.3,194.3,239.4z M210,285.1c0,0.5,0,1-0.1,1.4
				l-4.1,28.6c-0.8,5.5-5.9,9.4-11.3,8.6c-5.5-0.8-9.3-5.9-8.5-11.4l4.1-28.7c0.8-5.5,5.8-9.3,11.3-8.6
				C206.4,275.8,210,280.1,210,285.1z M180.7,250.8c2.2-2.9,6.3-3.5,9.2-1.2c2.9,2.2,3.4,6.4,1.2,9.3c-2.2,2.9-6.3,3.4-9.2,1.2
				C179.1,257.8,178.5,253.7,180.7,250.8z M155.4,312.3l4.1-28.7c0.8-5.5,5.8-9.3,11.3-8.6c5,0.7,8.6,5,8.6,10c0,0.5,0,1-0.1,1.4
				l-4.1,28.6c-0.8,5.5-5.9,9.4-11.3,8.6C158.4,323,154.6,317.8,155.4,312.3z M217.2,235.2c-2.2,2.9-6.3,3.5-9.2,1.2
				c-2.9-2.2-3.4-6.4-1.2-9.3c2.2-2.9,6.3-3.4,9.2-1.2C218.8,228.2,219.3,232.3,217.2,235.2z M229.8,224.3c-2.2,2.9-6.3,3.5-9.2,1.2
				c-2.9-2.2-3.4-6.4-1.2-9.3c2.2-2.9,6.3-3.5,9.2-1.2C231.5,217.2,232,221.4,229.8,224.3z"/>
			<path class="st1" d="M229.8,224.3c-2.2,2.9-6.3,3.4-9.2,1.2c-2.9-2.2-3.4-6.4-1.2-9.3c2.2-2.9,6.3-3.4,9.2-1.2
				C231.5,217.2,232,221.4,229.8,224.3z"/>
			<path class="st1" d="M217.2,235.2c-2.2,2.9-6.3,3.4-9.2,1.2c-2.9-2.2-3.4-6.4-1.2-9.3c2.2-2.9,6.3-3.4,9.2-1.2
				C218.8,228.2,219.4,232.4,217.2,235.2z"/>
			<path class="st1" d="M204.7,247.4c-2.2,2.9-6.3,3.4-9.2,1.2c-2.9-2.2-3.4-6.4-1.2-9.3c2.2-2.9,6.3-3.4,9.2-1.2
				S206.9,244.6,204.7,247.4z"/>
			<path class="st1" d="M191.1,258.8c-2.2,2.9-6.3,3.5-9.2,1.2c-2.9-2.2-3.4-6.4-1.2-9.3c2.2-2.9,6.3-3.4,9.2-1.2
				C192.8,251.7,193.3,255.9,191.1,258.8z"/>
		</g>
	</g>
	<path class="st1" d="M210,285.1c0,0.5,0,1-0.1,1.4l-4.1,28.6c-0.8,5.5-5.9,9.4-11.3,8.6c-5.5-0.8-9.3-5.9-8.5-11.4l4.1-28.7
		c0.8-5.5,5.8-9.3,11.3-8.6C206.4,275.8,210,280.1,210,285.1z"/>
	<path class="st1" d="M179.4,285.1c0,0.5,0,1-0.1,1.4l-4.1,28.6c-0.8,5.5-5.9,9.4-11.3,8.6c-5.5-0.8-9.3-5.9-8.5-11.4l4.1-28.7
		c0.8-5.5,5.8-9.3,11.3-8.6C175.8,275.8,179.4,280.1,179.4,285.1z"/>
	<path class="st2" d="M75.6,350c138.7,0.2,277.3,0.4,416,0.6"/>
	<g>
		<g>
			<g>
				<rect x="59.7" y="346" class="st5" width="440.3" height="83"/>
				<text transform="matrix(1 0 0 1 78.5744 419.0434)" class="st6 st7 st8 st9">CD DRIFT</text>
				<text transform="matrix(1 0 0 1 78.5744 419.0434)" class="st10 st7 st8 st9">CD DRIFT</text>
			</g>
		</g>
		<g>
			<g>
				<rect x="58.7" y="345" class="st5" width="440.3" height="83"/>
				<text transform="matrix(1 0 0 1 77.5744 418.0434)" class="st6 st7 st8 st9">CD DRIFT</text>
				<text transform="matrix(1 0 0 1 77.5744 418.0434)" class="st10 st7 st8 st9">CD DRIFT</text>
			</g>
		</g>
		<g>
			<g>
				<rect x="57.7" y="344" class="st5" width="440.3" height="83"/>
				<text transform="matrix(1 0 0 1 76.5744 417.0434)" class="st6 st7 st8 st9">CD DRIFT</text>
				<text transform="matrix(1 0 0 1 76.5744 417.0434)" class="st10 st7 st8 st9">CD DRIFT</text>
			</g>
		</g>
	</g>
</g>
<g id="Vrstva_6">
	<g>
		<path class="st11" d="M387.8,64.1c3.2-3.2,6.2-5.4,6.6-5.7C393.5,58.9,390.9,61,387.8,64.1"/>
		<path class="st11" d="M378.5,32.1c-0.7,0.5-1.4,1-2,1.5c-0.1,0.1-0.2,0.2-0.3,0.2c-7,5.6-11.9,13.2-22.5,26.2
			c-0.4,0.5-1.5,1.8-2.1,3.9c-1.1,3.8-0.2,8.5,2.6,11.9l-0.5,0.5l-1.5,1.4c-0.2-0.1-0.3-0.3-0.5-0.4c-6.2-4.3-14.5-10.7-22.7-17
			c-1-0.8-3.2-6.1-3.2-10.8c0-4.4,3-8.4,6.2-10.6c3.6-2.5,8.2-3.1,11.9-1.9c3.6,1.2,17.6,12.6,17.8,12.4C361.8,49.2,345.7,38,345,34
			c-1-5.2,4.4-12,10.9-13.9c4.2-1.2,7.9-0.2,9.4,0.3c1.2,0.4,2.4,1,3.6,1.7c0.2,0.1,0.5,0.3,0.7,0.5c4.3,3,7.9,7.6,8.6,8.8
			L378.5,32.1z"/>
		<path class="st11" d="M313.2,114.8l7.9,5.7c0,0,0,0,0,0l7.6,5.4l0.2,0.1l0.1,0.1l0.1,0.1l0.2,0.2l33.5,22l0.6,0.4l13.4-21.2
			l18.8-28.7c-1.1,1.7-2,1.8-1,0.4l-0.4-1.8v0"/>
		<path class="st11" d="M378.5,32.1L378.5,32.1c1.5-1.1,3.1-2,5-3c4.1-2.2,8-3.5,12.1-2.5c1.9,0.5,3.3,1.5,6.2,3.4
			c4.3,2.9,7.2,5.9,9.6,8.4c1.4,1.5,3.2,3.5,5.2,6c0.8,0.9,1.5,1.8,2.2,2.6c0.2,0.2,0.4,0.5,0.6,0.7c9,11.2,10.7,18.6,10.4,23.5
			c-0.1,2-0.6,8.4,3.2,12c1,0.9,1.5,1.4,2.1,1.9c1,0.8,2.2,1.9,3.1,2.6l-49.9,65.9c-2.3-1.7-4.1-3.1-4.8-3.5
			c-2.5-1.7-6.4-1.7-11.3-1.7c-3.4,0-5.8,0.5-6.6,0.6c-0.6,0-1.2,0.1-1.8,0c-0.1,0-0.2,0-0.3,0c-0.2,0-0.4,0-0.5-0.1
			c-0.1,0-0.2,0-0.3,0c-4-0.5-10-3.1-23-12.8c-6.1-4.5-7.8-6.2-12.1-9.7c-2.6-2.2-5-3.9-6.9-5.4c-1.2-0.9-2.2-1.7-3.1-2.3l-0.5-0.4
			c-0.6-0.5-1.2-1-1.8-1.4c-0.8-0.7-1.6-1.3-2.3-1.8c-0.2-0.1-0.4-0.3-0.5-0.4c-2.3-1.8-4-3-5.3-3.8c-0.5-0.3-1.7-1.1-3.1-2.4
			c-1.5-1.3-2.6-2.7-4.1-4.5c-2.9-3.5-1.9-8.6-1.7-9.8c1.2-6.6,8.7-14.3,13.5-13c0.3,0.1,1.7,1,3.6,2.4c0.1,0.1,0.3,0.2,0.4,0.3
			c4.6,3.6,12.2,9.4,16.6,12.8"/>
		<path class="st11" d="M359.8,98.3c-0.7,1.3-3,5.4-7.8,6.9c-0.4,0.1-2.6,0.6-5.1,0.6h-0.1c-1.8-0.1-3.7-0.4-5.1-1.4
			c-0.9-1.1-3.2-3-6.2-5.4l0,0c-0.2-0.2-0.4-0.3-0.6-0.4c-0.1-0.1-0.2-0.1-0.2-0.2c-0.1-0.1-0.3-0.2-0.5-0.4
			c-0.5-0.4-1.1-0.8-1.8-1.3c-4.5-3.4-12-9.2-16.6-12.8c-0.1-0.1-0.3-0.2-0.4-0.3c-1.9-1.5-3.2-2.5-3.5-2.7c-3.2-2.8-3-7.9-2.9-8.7
			c0.2-5.1,3.5-8.4,4.5-9.5c2.8-2.8,8-5.9,12.4-4.5c0.5,0.2,15.6,11.5,25.8,19.3c0.2,0.1,0.4,0.3,0.5,0.4c0.6,0.4,1.2,0.9,1.7,1.3
			c4.7,3.6,7.8,6,6.8,5.4C364.3,87.6,361.7,94.8,359.8,98.3z"/>
		<path class="st11" d="M386.8,65.3c-0.1,0.1-0.2,0.2-0.2,0.2c-1.6,1.6-0.2-0.1-0.1-0.3c0,0,0,0,0,0c0,0,0,0,0,0
			c-1.7,1.7-3.6,3.7-5.4,5.8c-0.4,0.4-0.7,0.8-1.1,1.3c0,0-3.2,3.8-6.9,6c-0.9,0.5-1.9,1-1.9,1s-1.5,0.7-2.8,1.2
			c-0.6,0.2-2,0.4-3.7,0.4c-0.1,0-0.1,0-0.2,0c-3-0.1-6.9-1.1-9.9-4.4c-0.2-0.2-0.4-0.4-0.5-0.6c-2.8-3.4-3.7-8.1-2.6-11.9
			c0.6-2,1.7-3.4,2.1-3.9c10.5-13,15.5-20.6,22.5-26.2c0.1-0.1,0.2-0.2,0.3-0.2c0.7-0.5,1.3-1,2-1.5l0,0"/>
		<path class="st11" d="M394.9,97.9c-0.9-0.7,1.1,0.8,0.7,0.6c-5.3-3.9-12-10.9-14.3-19.7c-0.6-2.2-1-3.9-0.5-5.2
			c1.2-3.1,3.6-5.7,6-8.3"/>
		<path class="st12" d="M417.1,163.4c-3.2,4-10.4,2.8-15.5-0.1c-1.3-0.7-2.2-1.4-3-2c-1.9-1.4-5.9-4.3-9.3-6.9
			c-0.4-0.3-0.7-0.5-1.1-0.8l49.9-65.9c4,3.3,8,6.6,12,10c1.7,1.9,8.7,7.5,6.7,12.7c-0.4,1-1.1,2-1.5,2.5
			C439.4,135.4,429.8,146.6,417.1,163.4z"/>
		<path class="st13" d="M326.1,91.8c2.1,1.6,4.2,3.3,6.2,4.8c0.8,0.6,1.5,1.2,2.2,1.7"/>
	</g>
	<path class="st14" d="M340.8,103.5c0.4,0.3,0.7,1.4,1.2,1.5c1.5,0.6,3.2,0.7,4.7,0.7h0.1c2.5,0.1,4.7-0.4,5.1-0.6
		c4.8-1.5,7.1-5.6,7.8-6.9c1.9-3.4,4.5-10.6,0.9-13.8c0.9,0.6-2.1-1.8-6.8-5.4c-0.5-0.4-1.1-0.9-1.7-1.3c-0.2-0.1-0.3-0.3-0.5-0.4
		l0-0.1c0.2,0.1,0.3,0.3,0.5,0.4l1.5-1.4c0,0,0.1,0.1,0.1,0.1c3.3,3.7,7.8,4.5,10.8,4.4c0.1,0,0.1,0,0.2,0c1.7,0.1,3.1-0.2,3.7-0.4
		c1.3-0.4,2.8-1.2,2.8-1.2s1-0.4,1.9-1c3.7-2.1,6.9-6,6.9-6c0.4-0.4,0.7-0.9,1.1-1.3c-0.6,0.9-1.1,1.9-1.5,2.9
		c-0.5,1.3-0.1,3,0.5,5.2c2.3,8.7,10.4,15.5,15.5,19.7l-18.8,28.7l-25.8,29L304.5,122c0,0,6.8-8.2,6.8-8.2l9.7,6.7
		c3.2,1.6,10.6,1.6,13,0.4c5.1-2.5,8.1-8.7,7.9-15.8"/>
	<g>
		<path class="st15" d="M385.6,65.3c-1.6,1.7-3.2,3.7-4.5,5.7c-0.4,0.4-0.7,0.8-1.1,1.3c0,0-3.2,3.8-6.9,6c-0.9,0.5-1.9,1-1.9,1
			s-1.5,0.7-2.8,1.2c-0.6,0.2-2,0.4-3.7,0.4c1.3,0,2.2-0.2,2.8-0.4c1.3-0.4,2.8-1.2,2.8-1.2s1-0.4,1.9-1c3.7-2.1,6.9-6,6.9-6
			C381.2,69.8,383.4,67.4,385.6,65.3L385.6,65.3z"/>
		<path class="st16" d="M385.5,65.3c-2.1,2.1-4.3,4.5-6.5,7c0,0-3.2,3.8-6.9,6c-0.9,0.5-1.9,1-1.9,1s-1.5,0.7-2.8,1.2
			c-0.5,0.2-1.5,0.4-2.8,0.4c0.2,0,0.3,0,0.5,0c1.5,0,2.7-0.2,3.2-0.4c1.3-0.4,2.8-1.2,2.8-1.2s1-0.4,1.9-1c3.7-2.1,6.9-6,6.9-6
			c0.4-0.4,0.7-0.9,1.1-1.3C382.3,69,384,67.1,385.5,65.3L385.5,65.3L385.5,65.3z"/>
	</g>
</g>
</svg>
